SO_states
version=1
nRows=4
nColumns=49
inDegrees=yes
endheader
time	/jointset/bb/crank_angle/value	/jointset/bb/crank_angle/speed	/jointset/spindle/pedal_angle_r/value	/jointset/spindle/pedal_angle_r/speed	/jointset/ground_pelvis/pelvis_tilt/value	/jointset/ground_pelvis/pelvis_tilt/speed	/jointset/ground_pelvis/pelvis_list/value	/jointset/ground_pelvis/pelvis_list/speed	/jointset/ground_pelvis/pelvis_rotation/value	/jointset/ground_pelvis/pelvis_rotation/speed	/jointset/ground_pelvis/pelvis_tx/value	/jointset/ground_pelvis/pelvis_tx/speed	/jointset/ground_pelvis/pelvis_ty/value	/jointset/ground_pelvis/pelvis_ty/speed	/jointset/ground_pelvis/pelvis_tz/value	/jointset/ground_pelvis/pelvis_tz/speed	/jointset/hip_r/hip_angle_r/value	/jointset/hip_r/hip_angle_r/speed	/jointset/hip_r/hip_adduction_r/value	/jointset/hip_r/hip_adduction_r/speed	/jointset/hip_r/hip_rotation_r/value	/jointset/hip_r/hip_rotation_r/speed	/jointset/knee_r/knee_angle_r/value	/jointset/knee_r/knee_angle_r/speed	/jointset/knee_r/tib_tx_r/value	/jointset/knee_r/tib_tx_r/speed	/jointset/knee_r/tib_ty_r/value	/jointset/knee_r/tib_ty_r/speed	/jointset/tib_pat_r/pat_angle_r/value	/jointset/tib_pat_r/pat_angle_r/speed	/jointset/tib_pat_r/pat_tx_r/value	/jointset/tib_pat_r/pat_tx_r/speed	/jointset/tib_pat_r/pat_ty_r/value	/jointset/tib_pat_r/pat_ty_r/speed	/jointset/ankle_r/ankle_angle_r/value	/jointset/ankle_r/ankle_angle_r/speed	/jointset/subtalar_r/subtalar_angle_r/value	/jointset/subtalar_r/subtalar_angle_r/speed	/jointset/mtp_r/mtp_angle_r/value	/jointset/mtp_r/mtp_angle_r/speed	/forceset/bifemlh_r/activation	/forceset/bifemlh_r/fiber_length	/forceset/bifemsh_r/activation	/forceset/bifemsh_r/fiber_length	/forceset/glut_max2_r/activation	/forceset/glut_max2_r/fiber_length	/forceset/vas_int_r/activation	/forceset/vas_int_r/fiber_length
      0.00000000	    -44.95842216	   -480.13861982	     48.04400897	    580.41417701	     -0.03828942	      0.00000000	      0.03935896	      0.00000000	      0.03347547	      0.00000000	     -0.10000000	      0.00000000	     -0.05000000	      0.00000000	      0.00000000	      0.00000000	     80.29604059	   -104.18791989	      4.17645389	      2.07745274	     -2.40760607	     20.56870720	   -100.72918580	    246.03981335	      0.00194531	      0.05336986	     -0.48964867	      0.08453063	     17.60950266	     -1.01238109	      0.02843759	      0.10441553	     -0.02321465	      0.01436713	     24.13387752	    -43.10026178	      0.00000000	      0.00000000	      0.00000000	      0.00000000	      0.05000000	      0.10000000	      0.05000000	      0.10000000	      0.05000000	      0.10000000	      0.05000000	      0.10000000
      0.00100000	    -45.43826258	   -480.13863865	     48.62377572	    580.06569204	     -0.03810159	      0.00000000	      0.03926727	      0.00000000	      0.03350368	      0.00000000	     -0.10000000	     -0.00000000	     -0.05000000	     -0.00000000	      0.00000000	     -0.00000000	     80.19119285	   -105.75607042	      4.17843829	      2.07369266	     -2.38684788	     20.59687724	   -100.48266373	    246.97436540	      0.00199844	      0.05309008	     -0.48956393	      0.08492675	     17.60848573	     -1.01978364	      0.02854203	      0.10456398	     -0.02320032	      0.01433163	     24.09039495	    -42.81165708	      0.00000000	      0.00000000	      0.00000000	      0.00000000	      0.05000000	      0.10000000	      0.05000000	      0.10000000	      0.05000000	      0.10000000	      0.05000000	      0.10000000
      0.00150000	    -45.67818307	   -480.13863984	     48.91353102	    579.89216971	     -0.03800773	      0.00000000	      0.03922220	      0.00000000	      0.03351759	      0.00000000	     -0.10000000	     -0.00000000	     -0.05000000	     -0.00000000	      0.00000000	     -0.00000000	     80.13818079	   -106.53763489	      4.17942899	      2.07173157	     -2.37645738	     20.61076354	   -100.35905142	    247.43884392	      0.00202490	      0.05294982	     -0.48952142	      0.08511062	     17.60797453	     -1.02339945	      0.02859430	      0.10463548	     -0.02319317	      0.01430712	     24.06876355	    -42.66634413	      0.00000000	      0.00000000	      0.00000000	      0.00000000	      0.05000000	      0.10000000	      0.05000000	      0.10000000	      0.05000000	      0.10000000	      0.05000000	      0.10000000
      0.00358966	    -46.68088938	   -480.13862804	     50.12359660	    579.17554995	     -0.03761593	      0.00000000	      0.03903950	      0.00000000	      0.03357450	      0.00000000	     -0.10000000	      0.00000000	     -0.05000000	      0.00000000	      0.00000000	      0.00000000	     79.91241577	   -109.77375681	      4.18355765	      2.06269249	     -2.33295242	     20.66637043	    -99.83993827	    249.34671008	      0.00213471	      0.05234175	     -0.48934278	      0.08583231	     17.60581954	     -1.03742091	      0.02881315	      0.10490424	     -0.02316346	      0.01417700	     23.97916547	    -42.04713497	      0.00000000	      0.00000000	      0.00000000	      0.00000000	      0.05000000	      0.10000000	      0.05000000	      0.10000000	      0.05000000	      0.10000000	      0.05000000	      0.10000000
